<svg xmlns="http://www.w3.org/2000/svg" viewBox="0 0 240 240" width="240" height="240" role="img" aria-label="Illustrated avatar 8">
  <defs>
    <linearGradient id="bga7" x1="0" y1="0" x2="1" y2="1">
      <stop offset="0%" stop-color="#fb7185"/><stop offset="100%" stop-color="#e11d48"/>
    </linearGradient>
    <clipPath id="clipa7"><circle cx="120" cy="120" r="120"/></clipPath>
  </defs>
  <g clip-path="url(#clipa7)">
    <rect width="240" height="240" fill="url(#bga7)"/>
    <circle cx="120" cy="255" r="86" fill="#047857"/>
    <rect x="106" y="150" width="28" height="34" rx="12" fill="#f2d0b6"/>
    <circle cx="120" cy="112" r="50" fill="#f2d0b6"/>
    <g fill="#2f2a26"><circle cx="92" cy="66" r="17"/><circle cx="120" cy="52" r="20"/><circle cx="148" cy="66" r="17"/><circle cx="80" cy="88" r="13"/><circle cx="160" cy="88" r="13"/><circle cx="120" cy="70" r="19"/></g>
    <circle cx="103" cy="114" r="5" fill="#1f2937"/>
    <circle cx="137" cy="114" r="5" fill="#1f2937"/>
    <circle cx="104.5" cy="112.5" r="1.6" fill="#fff"/>
    <circle cx="138.5" cy="112.5" r="1.6" fill="#fff"/>
    <path d="M108 134c4 5 9 7 12 7s8-2 12-7" fill="none" stroke="#8a5a44" stroke-width="3.5" stroke-linecap="round"/>
    <path d="M96 96c3-4 8-6 12-6M132 90c4 0 9 2 12 6" fill="none" stroke="#2f2a26" stroke-width="3.5" stroke-linecap="round"/>
  </g>
</svg>
